<?xml version="1.0" encoding="UTF-8"?>
<svg width="15px" height="38px" viewBox="0 0 15 38" version="1.1" xmlns="http://www.w3.org/2000/svg" xmlns:xlink="http://www.w3.org/1999/xlink">
    <title>angle-right</title>
    <g id="icon-sprite" stroke="none" stroke-width="1" fill="none" fill-rule="evenodd">
        <g transform="translate(-161.000000, -53.000000)" fill="#333333" id="Group">
            <g transform="translate(144.000000, 48.000000)" id="angle-right">
                <path d="M25.0219055,30.4187303 L24.9297547,30.4431273 C24.9180493,30.4459905 24.9063178,30.4487487 24.8945617,30.4514014 C24.8597675,30.4597861 24.8250458,30.4666416 24.7902566,30.4725542 C24.7759261,30.4745079 24.7608942,30.4769036 24.7458334,30.4791287 C24.7122957,30.4844978 24.6793353,30.488479 24.6463592,30.4916307 C24.6288573,30.4929977 24.6111337,30.4944823 24.5933846,30.4957311 C24.5644639,30.497969 24.5354292,30.4993257 24.506416,30.5000486 C24.4789041,30.5006908 24.4512016,30.5008597 24.4234751,30.5004504 C24.4098868,30.5001645 24.3965483,30.4998075 24.3832207,30.4993175 C24.3433844,30.4980608 24.3033633,30.4954604 24.2633652,30.4916394 C24.251948,30.4902 24.2402901,30.4889672 24.2286468,30.4876328 C24.1918713,30.4838469 24.1552726,30.4786668 24.1187486,30.4724473 C24.1019444,30.4690752 24.0852324,30.4659981 24.0685646,30.4627104 C24.0407047,30.4577559 24.0126497,30.4516044 23.9846696,30.4448264 C23.9569873,30.437586 23.92995,30.4304356 23.9030717,30.4227245 C23.8852828,30.4180967 23.8672421,30.4126299 23.8492464,30.406895 C23.8200454,30.3971962 23.7911168,30.3872828 23.7624182,30.3767103 C23.7388701,30.3682791 23.7154707,30.3591098 23.6921761,30.349468 C23.6689489,30.3397699 23.645609,30.3296448 23.6224562,30.3190725 C23.6123986,30.3144274 23.6027806,30.3099169 23.593184,30.3053231 L23.5601594,30.2893193 C23.5324726,30.2755054 23.5050806,30.2610374 23.4780092,30.2459222 L23.4548166,30.2323848 L7.00033395,20.7323848 L6.87381184,20.6530028 C6.01577148,20.0694526 5.74110225,18.913438 6.26828314,18.000334 C6.79426862,17.0893004 7.9287766,16.7486386 8.86196657,17.1953448 L9.00033395,17.2682831 L24.454,26.191 L39.9092993,17.2682831 C40.8658845,16.7159984 42.0890654,17.0437487 42.6413501,18.000334 C43.1673356,18.9113675 42.8951033,20.0642111 42.0416494,20.6490242 L41.9092993,20.7323848 L25.4649051,30.2269191 C25.4317747,30.2462599 25.3981386,30.2646162 25.3640451,30.281975 L25.3228088,30.3022651 C25.2415997,30.3414891 25.1588491,30.3747348 25.0750922,30.4021456 C25.0643127,30.4052482 25.0535338,30.4086602 25.0427274,30.4119809 L25.0219055,30.4187303 L25.0219055,30.4187303 Z" transform="translate(24.454817, 23.750336) scale(-1, -1) rotate(-270.000000) translate(-24.454817, -23.750336) "></path>
            </g>
        </g>
    </g>
</svg>