<?xml version="1.0" encoding="UTF-8"?>
<svg width="32px" height="32px" viewBox="0 0 32 32" version="1.1" xmlns="http://www.w3.org/2000/svg" xmlns:xlink="http://www.w3.org/1999/xlink">
    <title>eye-dropper-solid</title>
    <g id="Symbols" stroke="none" stroke-width="1" fill="none" fill-rule="evenodd">
        <g id="eye-dropper-solid" fill="#000000" fill-rule="nonzero">
            <path d="M30.175264,1.82692273 C32.606536,4.26319471 32.606536,8.21260535 30.175264,10.6501273 L23.8252067,16.9939346 L24.412712,17.5876899 C25.1939691,18.368947 25.1939691,19.6314584 24.412712,20.4127154 C23.631455,21.1939725 22.3689436,21.1939725 21.5876865,20.4127154 L11.5875963,10.4126252 C10.8063393,9.63136815 10.8063393,8.36885676 11.5875963,7.58759971 C12.3688534,6.80634266 13.6313648,6.80634266 14.4126218,7.58759971 L15.0063772,8.17510501 L21.3501844,1.82692273 C23.7877064,-0.608974244 27.737742,-0.608974244 30.175264,1.82692273 L30.175264,1.82692273 Z M3.46439802,20.2064636 L11.0063411,12.6626455 L13.8376166,15.493921 L6.29379855,23.0377391 C6.10567185,23.2252408 6.0000459,23.475243 6.0000459,23.7439955 L6.0000459,26.0002658 L8.25631626,26.0002658 C8.52506868,26.0002658 8.77507094,25.8940149 8.96257263,25.7065132 L16.5063907,18.1626951 L19.3376662,20.9939707 L11.7938482,28.5377887 C10.8563397,29.4752972 9.58132821,30.0003019 8.25631626,30.0003019 L5.60566734,30.0003019 L3.10939482,31.6628169 C2.31626266,32.1940717 1.26000313,32.0878208 0.585809552,31.4128147 C-0.0883215303,30.7378086 -0.192884974,29.681549 0.335932297,28.8877919 L2,26.3940194 L2,23.7439955 C2,22.4189835 2.52688956,21.143972 3.46439802,20.2064636 L3.46439802,20.2064636 Z" id="Shape"></path>
        </g>
    </g>
</svg>