<?xml version="1.0" encoding="UTF-8"?>
<svg width="32px" height="32px" viewBox="0 0 32 32" version="1.1" xmlns="http://www.w3.org/2000/svg" xmlns:xlink="http://www.w3.org/1999/xlink">
    <title>icon-eyedropper</title>
    <g id="icon-eyedropper" stroke="none" stroke-width="1" fill="none" fill-rule="evenodd">
        <g id="eye-dropper-solid" transform="translate(4.000000, 4.000000)" fill="#000000" fill-rule="nonzero">
            <path d="M22.6311458,1.37017375 C24.4545754,3.19735334 24.4545754,6.15937176 22.6311458,7.98748884 L17.8686664,12.7452807 L18.3092895,13.1905913 C18.8952245,13.7765263 18.8952245,14.7233972 18.3092895,15.3093321 C17.7233546,15.8952671 16.7764837,15.8952671 16.1905487,15.3093321 L8.69058118,7.80936461 C8.10464622,7.22342965 8.10464622,6.27655875 8.69058118,5.69062379 C9.27651614,5.10468883 10.223387,5.10468883 10.809322,5.69062379 L11.2546326,6.13124688 L16.0124245,1.37017375 C17.8405415,-0.456724584 20.8030287,-0.456724584 22.6311458,1.37017375 L22.6311458,1.37017375 Z M2.59826382,15.1546453 L8.25464557,9.4968573 L10.3780739,11.6202856 L4.72028588,17.2780736 C4.57919274,17.418698 4.49997433,17.6061972 4.49997433,17.8077588 L4.49997433,19.499939 L6.1921545,19.499939 C6.39371613,19.499939 6.58121532,19.4202518 6.72183971,19.2796274 L12.3796277,13.6218394 L14.503056,15.7452677 L8.84526801,21.4030557 C8.14214606,22.1061777 7.1859002,22.499926 6.1921545,22.499926 L4.20419436,22.499926 L2.33201497,23.7467956 C1.7371738,24.1452314 0.944989732,24.0655442 0.439351297,23.5592964 C-0.0662402631,23.0530486 -0.144661798,22.2608645 0.251945859,21.6655546 L1.49998733,19.7952502 L1.49998733,17.8077588 C1.49998733,16.8140131 1.89514187,15.8577672 2.59826382,15.1546453 L2.59826382,15.1546453 Z" id="Shape"></path>
        </g>
    </g>
</svg>