<?xml version="1.0" encoding="UTF-8"?>
<svg width="32px" height="32px" viewBox="0 0 32 32" version="1.1" xmlns="http://www.w3.org/2000/svg" xmlns:xlink="http://www.w3.org/1999/xlink">
    <title>icon-eye-dropper</title>
    <g id="icon-eye-dropper" stroke="none" stroke-width="1" fill="none" fill-rule="evenodd">
        <g id="eye-dropper-solid" transform="translate(6.000000, 6.000000)" fill="#000000" fill-rule="nonzero">
            <path d="M18.8590867,1.14179926 C20.3785951,2.66443265 20.3785951,5.13275496 18.8590867,6.65616959 L14.8903963,10.6209538 L15.2575783,10.992042 C15.7458522,11.4803159 15.7458522,12.2693666 15.2575783,12.7576405 C14.7693043,13.2459144 13.9802537,13.2459144 13.4919798,12.7576405 L7.24207361,6.50773431 C6.75379969,6.0194604 6.75379969,5.23040974 7.24207361,4.74213583 C7.73034753,4.25386191 8.51939818,4.25386191 9.0076721,4.74213583 L9.37876028,5.10931781 L13.3435445,1.14179926 C14.8669591,-0.380599754 17.335672,-0.380599754 18.8590867,1.14179926 L18.8590867,1.14179926 Z M2.16519672,12.6287362 L6.87879782,7.9139632 L8.6483025,9.68346788 L3.93352954,14.3982408 C3.81595318,14.5154266 3.74993855,14.6716742 3.74993855,14.8396405 L3.74993855,16.2497755 L5.16007362,16.2497755 C5.32803985,16.2497755 5.4842875,16.1833703 5.60147324,16.0661845 L10.3162462,11.3514116 L12.0857509,13.1209163 L7.37097792,17.8356892 C6.78504922,18.4216179 5.98818619,18.749738 5.16007362,18.749738 L3.50345787,18.749738 L1.94332505,19.7887849 C1.44762937,20.1208112 0.78748303,20.0544059 0.366122169,19.6325372 C-0.0551996295,19.2106686 -0.120550211,18.5505222 0.209952639,18.0544359 L1.24997609,16.4958656 L1.24997609,14.8396405 C1.24997609,14.0115279 1.57926802,13.2146649 2.16519672,12.6287362 L2.16519672,12.6287362 Z" id="Shape"></path>
        </g>
    </g>
</svg>