<?xml version="1.0" encoding="UTF-8"?>
<svg width="32px" height="32px" viewBox="0 0 32 32" version="1.1" xmlns="http://www.w3.org/2000/svg" xmlns:xlink="http://www.w3.org/1999/xlink">
    <title>icon-home</title>
    <g id="icon-home" stroke="none" stroke-width="1" fill="none" fill-rule="evenodd">
        <path d="M15.6464466,0.646446609 C15.820013,0.472880258 16.0894374,0.453595107 16.2843055,0.588591159 L16.3535534,0.646446609 L31.3535534,15.6464466 C31.5488155,15.8417088 31.5488155,16.1582912 31.3535534,16.3535534 C31.179987,16.5271197 30.9105626,16.5464049 30.7156945,16.4114088 L30.6464466,16.3535534 L16,1.707 L1.35355339,16.3535534 C1.17998704,16.5271197 0.910562638,16.5464049 0.715694497,16.4114088 L0.646446609,16.3535534 C0.472880258,16.179987 0.453595107,15.9105626 0.588591159,15.7156945 L0.646446609,15.6464466 L15.6464466,0.646446609 Z" id="Path-3" fill="#000000" fill-rule="nonzero"></path>
        <path d="M28,15.5 C28.2454599,15.5 28.4496084,15.6768752 28.4919443,15.9101244 L28.5,16 L28.5,31 C28.5,31.2454599 28.3231248,31.4496084 28.0898756,31.4919443 L28,31.5 L20,31.5 C19.7545401,31.5 19.5503916,31.3231248 19.5080557,31.0898756 L19.5,31 L19.5,20.5 L12.5,20.5 L12.5,31 C12.5,31.2454599 12.3231248,31.4496084 12.0898756,31.4919443 L12,31.5 L4,31.5 C3.75454011,31.5 3.55039163,31.3231248 3.50805567,31.0898756 L3.5,31 L3.5,16 C3.5,15.7238576 3.72385763,15.5 4,15.5 C4.24545989,15.5 4.44960837,15.6768752 4.49194433,15.9101244 L4.5,16 L4.5,30.5 L11.5,30.5 L11.5,20 C11.5,19.7545401 11.6768752,19.5503916 11.9101244,19.5080557 L12,19.5 L20,19.5 C20.2454599,19.5 20.4496084,19.6768752 20.4919443,19.9101244 L20.5,20 L20.5,30.5 L27.5,30.5 L27.5,16 C27.5,15.7545401 27.6768752,15.5503916 27.9101244,15.5080557 L28,15.5 Z" id="Path-4" fill="#000000" fill-rule="nonzero"></path>
        <path d="M10,3.5 C10.2454599,3.5 10.4496084,3.67687516 10.4919443,3.91012437 L10.5,4 L10.5,4.97843552 C10.5,5.25457789 10.2761424,5.47843552 10,5.47843552 C9.75454011,5.47843552 9.55039163,5.30156036 9.50805567,5.06831115 L9.5,4.97843552 L9.5,4.5 L6.5,4.5 L6.5,8.11676025 C6.5,8.36222014 6.32312484,8.56636862 6.08987563,8.60870458 L6,8.61676025 C5.75454011,8.61676025 5.55039163,8.43988509 5.50805567,8.20663589 L5.5,8.11676025 L5.5,4 C5.5,3.75454011 5.67687516,3.55039163 5.91012437,3.50805567 L6,3.5 L10,3.5 Z" id="Path-5" fill="#000000" fill-rule="nonzero"></path>
    </g>
</svg>