<?xml version="1.0" encoding="UTF-8"?>
<svg width="32px" height="32px" viewBox="0 0 32 32" version="1.1" xmlns="http://www.w3.org/2000/svg" xmlns:xlink="http://www.w3.org/1999/xlink">
    <title>icon-youtube</title>
    <g id="icon-youtube" stroke="none" stroke-width="1" fill="none" fill-rule="evenodd">
        <g id="youtube-brands" transform="translate(1.008000, 5.000000)" fill="#000000" fill-rule="nonzero">
            <path d="M29.3731209,3.30045373 C29.0280957,2.00132202 28.011532,0.978166531 26.7208048,0.630944054 C24.3812691,0 15,0 15,0 C15,0 5.61878587,0 3.27919522,0.630944054 C1.98846803,0.978221462 0.971904331,2.00132202 0.626879118,3.30045373 C6.83046535e-16,5.6552055 6.83046535e-16,10.5681756 6.83046535e-16,10.5681756 C6.83046535e-16,10.5681756 6.83046535e-16,15.4811457 0.626879118,17.8358974 C0.971904331,19.1350291 1.98846803,20.1155577 3.27919522,20.4627802 C5.61878587,21.0937243 15,21.0937243 15,21.0937243 C15,21.0937243 24.3812141,21.0937243 26.7208048,20.4627802 C28.011532,20.1155577 29.0280957,19.1350291 29.3731209,17.8358974 C30,15.4811457 30,10.5681756 30,10.5681756 C30,10.5681756 30,5.6552055 29.3731209,3.30045373 Z M11.931797,15.0287841 L11.931797,6.10756701 L19.7726748,10.5682854 L11.931797,15.0287841 Z" id="Shape"></path>
        </g>
    </g>
</svg>