<?xml version="1.0" encoding="UTF-8"?>
<svg width="32px" height="32px" viewBox="0 0 32 32" version="1.1" xmlns="http://www.w3.org/2000/svg" xmlns:xlink="http://www.w3.org/1999/xlink">
    <title>icon-tag</title>
    <g id="icon-tag" stroke="none" stroke-width="1" fill="none" fill-rule="evenodd">
        <path d="M17.9345099,4.42355593 L18.0314382,4.43312456 L28.2319354,6.26218498 C28.5674744,6.32235077 28.7922828,6.64341045 28.7340591,6.97929183 L28.7340591,6.97929183 L26.948654,17.2789472 C26.920694,17.4402431 26.8298699,17.5834552 26.696162,17.6770785 L26.696162,17.6770785 L12.4437811,27.6567031 C12.1653489,27.8516634 11.7806714,27.7826866 11.5845799,27.5026389 L11.5845799,27.5026389 L3.11746695,15.4103484 C2.92137548,15.1303008 2.98812587,14.7452307 3.26655813,14.5502703 L3.26655813,14.5502703 L17.5709598,4.53422049 C17.7046677,4.44059722 17.8703067,4.40423193 18.0314382,4.43312456 Z M18.0722324,5.69456978 L4.48080382,15.2113906 L12.2378151,26.2895508 L25.7771906,16.809178 L27.413511,7.36956293 L18.0722324,5.69456978 Z M24.4574561,9.27927069 C25.4077887,10.6364862 25.0779449,12.5071236 23.7207293,13.4574561 C22.3635138,14.4077887 20.4928764,14.0779449 19.5425439,12.7207293 C18.5922113,11.3635138 18.9220551,9.49287642 20.2792707,8.54254387 C21.6364862,7.59221131 23.5071236,7.92205515 24.4574561,9.27927069 Z M20.9962412,9.56648392 C20.2045322,10.1208446 20.0121233,11.2120497 20.5664839,12.0037588 C21.1208446,12.7954678 22.2120497,12.9878767 23.0037588,12.4335161 C23.7954678,11.8791554 23.9878767,10.7879503 23.4335161,9.99624124 C22.8791554,9.20453217 21.7879503,9.01212326 20.9962412,9.56648392 Z" id="Combined-Shape" fill="#000000" fill-rule="nonzero"></path>
    </g>
</svg>