<?xml version="1.0" encoding="UTF-8"?>
<svg width="32px" height="32px" viewBox="0 0 32 32" version="1.1" xmlns="http://www.w3.org/2000/svg" xmlns:xlink="http://www.w3.org/1999/xlink">
    <title>icon-category-life</title>
    <g id="icon-category-life" stroke="none" stroke-width="1" fill="none" fill-rule="evenodd">
        <g id="Group-10" transform="translate(2.000000, 2.000000)" fill="#000000" fill-rule="nonzero">
            <path d="M16.791356,8.59979258 C18.9064528,8.59979258 20.2911014,10.0614771 20.2911014,12.42065 C20.2911014,13.0853569 19.9860612,13.8782549 19.3742538,14.8173337 L19.2801817,14.9592942 C19.1356218,15.1738861 18.9755275,15.3959239 18.799879,15.6256126 L18.6804755,15.7798742 C18.6196214,15.8575739 18.5570385,15.9361288 18.4927262,16.0155464 L18.3617955,16.1755343 C18.3395893,16.2023914 18.3171909,16.2293449 18.2946002,16.2563951 L18.1567493,16.4198593 C18.0866701,16.5021738 18.0148603,16.5853637 17.9413191,16.6694366 L17.7919279,16.838762 C17.7666445,16.8671798 17.7411688,16.8956964 17.7155005,16.9243118 L17.5591813,17.0971944 C17.5327432,17.1262068 17.5061125,17.1553188 17.4792892,17.1845305 L17.3160392,17.3610007 L17.1481668,17.5398794 C17.1198029,17.569894 17.0912462,17.6000095 17.0624969,17.6302262 L16.8876889,17.8127432 L16.7082553,17.9977024 L16.524195,18.1851175 C16.4931327,18.2165587 16.4618775,18.2481029 16.4304294,18.2797502 L16.2394266,18.4708742 L16.0437937,18.6644878 L15.8435295,18.8606045 L15.6386328,19.0592377 L15.4291021,19.2604008 L15.2149363,19.4641075 L14.996134,19.6703712 L14.772694,19.8792054 L14.5446148,20.0906236 L14.1897395,20.4183032 L14.0092315,20.6138913 L13.9934986,20.5994248 L13.9778444,20.6138913 L13.7969493,20.4181489 L13.328982,19.9856478 L13.1054342,19.777599 L12.8864326,19.5720763 L12.6719758,19.3690667 L12.4620627,19.168557 L12.2566919,18.9705343 C12.2228419,18.937737 12.1891811,18.9050428 12.1557095,18.8724514 L11.9571499,18.6781344 L11.7631296,18.4862715 L11.5736472,18.2968497 C11.5424449,18.2654821 11.5114316,18.2342157 11.4806073,18.2030501 L11.2979295,18.0172654 C11.2678611,17.9865023 11.2379817,17.9558396 11.2082912,17.9252769 L11.0324151,17.7430998 C11.0034803,17.7129363 10.9747342,17.6828724 10.946177,17.6529078 L10.7770999,17.4743087 C10.7214961,17.4151713 10.6666475,17.3564287 10.6125538,17.2980787 L10.4525376,17.1242047 C10.4262456,17.0954213 10.4001423,17.0667355 10.3742277,17.038147 L10.2210038,16.8677824 C10.1958437,16.8395823 10.1708722,16.8114789 10.1460894,16.7834721 L9.99965493,16.6165874 C9.92756901,16.5337221 9.85717988,16.4517206 9.78848682,16.3705755 L9.65336195,16.2094253 C9.40977823,15.9160688 9.18899105,15.6341612 8.99096555,15.3633396 L8.88520879,15.216716 C8.10896014,14.1252518 7.71353457,13.2182121 7.69654643,12.4707436 L7.69597446,12.42065 C7.69597446,10.0614771 9.08062308,8.59979258 11.1957199,8.59979258 C12.2219333,8.59979258 13.1491605,9.01436784 13.9353491,9.79911894 L13.9934986,9.85832481 L13.9971058,9.85446907 C14.7775,9.05171363 15.7001981,8.61884837 16.72302,8.60040752 L16.791356,8.59979258 Z M16.791356,10.1425664 C16.0089602,10.1425664 15.3007396,10.56239 14.6706481,11.4554597 L14.629666,11.5143749 L13.9935379,12.4418018 L13.3574099,11.5143749 C12.7170935,10.5808416 11.9951243,10.1425664 11.1957199,10.1425664 C9.95191251,10.1425664 9.23874829,10.895408 9.23874829,12.42065 C9.23874829,12.6085002 9.29605944,12.8364822 9.41052307,13.1029432 L9.4485691,13.1883659 L9.49041363,13.2763352 C9.51228534,13.3209546 9.53558106,13.3665245 9.56030019,13.4130387 L9.61163611,13.5073238 L9.66676665,13.6041151 C9.69528038,13.6531353 9.72521669,13.7030909 9.75657493,13.7539756 L9.82118714,13.8569814 C9.83227177,13.8743549 9.84351434,13.891831 9.85491484,13.9094097 L9.92521273,14.0161097 L9.99929968,14.1252579 C10.0119632,14.1436526 10.0247846,14.1621489 10.0377637,14.1807465 L10.1175322,14.2935454 L10.2010869,14.4087636 L10.2884269,14.5263896 L10.3795508,14.6464118 C10.3950535,14.6666146 10.4107137,14.6869167 10.4265315,14.7073179 L10.5233295,14.8309127 L10.6239088,14.9568749 L10.7282683,15.0851927 C10.7459765,15.1067747 10.7638422,15.1284543 10.7818653,15.1502314 L10.8918929,15.2820611 L11.005698,15.4162176 L11.1232793,15.5526893 L11.2446359,15.6914647 L11.3697665,15.8325322 L11.4986701,15.9758802 C11.5204684,15.999961 11.5424238,16.0241362 11.5645364,16.0484058 L11.6990973,16.1951529 L11.8374284,16.3441516 L11.9795286,16.4953904 L12.1253968,16.6488576 L12.2750318,16.8045417 L12.4284326,16.9624311 L12.585598,17.1225143 L12.7465269,17.2847797 L12.9949744,17.5322442 L13.2518837,17.7845535 L13.4278556,17.955432 L13.6075855,18.1284348 L13.7910722,18.3035505 L13.9934986,18.4952356 L14.285319,18.2184945 L14.5536021,17.9608628 L14.8136069,17.7079099 L14.9823426,17.5418928 L15.1473964,17.3779831 L15.3087672,17.2161922 L15.4664539,17.0565313 L15.6204554,16.8990115 L15.8445457,16.6667709 L15.9893297,16.514653 L16.1304247,16.3647154 L16.3351482,16.1439218 L16.5315656,15.928097 L16.6578942,15.786993 L16.7805285,15.6481254 L16.9575508,15.4440418 L17.0709446,15.3108142 L17.1806404,15.1798622 C17.1986148,15.1582272 17.2164351,15.1366874 17.2341012,15.1152431 L17.3382479,14.9877256 L17.4386938,14.8625117 L17.5354379,14.7396127 L17.6284791,14.6190397 L17.7178163,14.500804 L17.8034485,14.3849168 L17.8853745,14.2713892 L17.9635933,14.1602325 L18.0381039,14.0514579 L18.108905,13.9450766 L18.1759958,13.8410998 L18.239375,13.7395386 C18.2496289,13.7228137 18.259728,13.7061899 18.2696725,13.6896675 L18.3274825,13.5917509 C18.336808,13.5756348 18.3459787,13.5596205 18.3549947,13.5437083 L18.4072329,13.4494616 C18.4240265,13.4184554 18.4402007,13.3878594 18.4557554,13.3576753 L18.500561,13.2683608 C18.6580324,12.9454195 18.7405249,12.6725509 18.7477999,12.4522409 L18.7483276,12.42065 C18.7483276,10.895408 18.0351634,10.1425664 16.791356,10.1425664 Z" id="Path-8"></path>
            <path d="M14.0428674,0 C14.5424788,0 14.9496438,0.395810181 14.9678932,0.890961415 L14.9685317,0.925664301 L14.9685317,5.09115366 C14.9685317,5.60238393 14.5540977,6.01681796 14.0428674,6.01681796 C13.543256,6.01681796 13.136091,5.62100778 13.1178416,5.12585654 L13.1172031,5.09115366 L13.1172031,0.925664301 C13.1172031,0.414434024 13.5316371,0 14.0428674,0 Z" id="Line-2"></path>
            <path d="M6.98037899,2.58414191 C7.4799904,2.58414191 7.88715539,2.97995209 7.90540482,3.47510332 L7.9060433,3.50980621 L7.9060433,7.67529556 C7.9060433,8.18652584 7.49160927,8.60095986 6.98037899,8.60095986 C6.48076759,8.60095986 6.0736026,8.20514968 6.05535317,7.70999845 L6.05471469,7.67529556 L6.05471469,3.50980621 C6.05471469,2.99857593 6.46914872,2.58414191 6.98037899,2.58414191 Z" id="Line-2" transform="translate(6.980379, 5.592551) rotate(-40.000000) translate(-6.980379, -5.592551) "></path>
            <path d="M3.12344441,9.06379201 C3.62305581,9.06379201 4.0302208,9.4596022 4.04847023,9.95475343 L4.04910871,9.98945632 L4.04910871,14.1549457 C4.04910871,14.6661759 3.63467468,15.08061 3.12344441,15.08061 C2.623833,15.08061 2.21666801,14.6847998 2.19841858,14.1896486 L2.1977801,14.1549457 L2.1977801,9.98945632 C2.1977801,9.47822604 2.61221413,9.06379201 3.12344441,9.06379201 Z" id="Line-2" transform="translate(3.123444, 12.072201) rotate(-80.000000) translate(-3.123444, -12.072201) "></path>
            <path d="M4.35766347,16.4691064 C4.85727488,16.4691064 5.26443987,16.8649166 5.2826893,17.3600678 L5.28332778,17.3947707 L5.28332778,21.5602601 C5.28332778,22.0714904 4.86889375,22.4859244 4.35766347,22.4859244 C3.85805207,22.4859244 3.45088708,22.0901142 3.43263765,21.594963 L3.43199917,21.5602601 L3.43199917,17.3947707 C3.43199917,16.8835404 3.8464332,16.4691064 4.35766347,16.4691064 Z" id="Line-2" transform="translate(4.357663, 19.477515) rotate(-120.000000) translate(-4.357663, -19.477515) "></path>
            <path d="M10.220204,21.7145375 C10.7198155,21.7145375 11.1269804,22.1103476 11.1452299,22.6054989 L11.1458684,22.6402018 L11.1458684,26.8056911 C11.1458684,27.3169214 10.7314343,27.7313554 10.220204,27.7313554 C9.72059264,27.7313554 9.31342766,27.3355452 9.29517822,26.840394 L9.29453975,26.8056911 L9.29453975,22.6402018 C9.29453975,22.1289715 9.70897377,21.7145375 10.220204,21.7145375 Z" id="Line-2" transform="translate(10.220204, 24.722946) rotate(-160.000000) translate(-10.220204, -24.722946) "></path>
            <path d="M17.7797958,21.7145375 C18.2794073,21.7145375 18.6865722,22.1103476 18.7048217,22.6054989 L18.7054601,22.6402018 L18.7054601,26.8056911 C18.7054601,27.3169214 18.2910261,27.7313554 17.7797958,27.7313554 C17.2801844,27.7313554 16.8730195,27.3355452 16.85477,26.840394 L16.8541315,26.8056911 L16.8541315,22.6402018 C16.8541315,22.1289715 17.2685656,21.7145375 17.7797958,21.7145375 Z" id="Line-2" transform="translate(17.779796, 24.722946) scale(-1, 1) rotate(-160.000000) translate(-17.779796, -24.722946) "></path>
            <path d="M23.6423364,16.4691064 C24.1419478,16.4691064 24.5491128,16.8649166 24.5673622,17.3600678 L24.5680007,17.3947707 L24.5680007,21.5602601 C24.5680007,22.0714904 24.1535667,22.4859244 23.6423364,22.4859244 C23.142725,22.4859244 22.73556,22.0901142 22.7173106,21.594963 L22.7166721,21.5602601 L22.7166721,17.3947707 C22.7166721,16.8835404 23.1311061,16.4691064 23.6423364,16.4691064 Z" id="Line-2" transform="translate(23.642336, 19.477515) scale(-1, 1) rotate(-120.000000) translate(-23.642336, -19.477515) "></path>
            <path d="M24.8765555,9.06379201 C25.3761669,9.06379201 25.7833319,9.4596022 25.8015813,9.95475343 L25.8022198,9.98945632 L25.8022198,14.1549457 C25.8022198,14.6661759 25.3877858,15.08061 24.8765555,15.08061 C24.3769441,15.08061 23.9697791,14.6847998 23.9515297,14.1896486 L23.9508912,14.1549457 L23.9508912,9.98945632 C23.9508912,9.47822604 24.3653252,9.06379201 24.8765555,9.06379201 Z" id="Line-2" transform="translate(24.876555, 12.072201) scale(-1, 1) rotate(-80.000000) translate(-24.876555, -12.072201) "></path>
            <path d="M21.1738983,2.58414191 C21.6735097,2.58414191 22.0806747,2.97995209 22.0989241,3.47510332 L22.0995626,3.50980621 L22.0995626,7.67529556 C22.0995626,8.18652584 21.6851286,8.60095986 21.1738983,8.60095986 C20.6742869,8.60095986 20.2671219,8.20514968 20.2488725,7.70999845 L20.248234,7.67529556 L20.248234,3.50980621 C20.248234,2.99857593 20.662668,2.58414191 21.1738983,2.58414191 Z" id="Line-2" transform="translate(21.173898, 5.592551) scale(-1, 1) rotate(-40.000000) translate(-21.173898, -5.592551) "></path>
        </g>
    </g>
</svg>