<?xml version="1.0" encoding="UTF-8"?>
<svg width="32px" height="32px" viewBox="0 0 32 32" version="1.1" xmlns="http://www.w3.org/2000/svg" xmlns:xlink="http://www.w3.org/1999/xlink">
    <title>icon-category-humor</title>
    <g id="icon-category-humor" stroke="none" stroke-width="1" fill="none" fill-rule="evenodd">
        <path d="M16.3316593,19.9969498 C14.9495359,19.5266449 13.8650902,19.6597891 13.0783221,20.3963824 C12.291554,21.1329756 11.7593454,22.3919159 11.4816964,24.1732033 C13.8863372,25.5241443 16.0591051,25.8775131 18,25.2333098 C19.9408949,24.5891064 21.5989749,23.5986863 22.97424,22.2620495 C22.1751491,20.2992102 21.229663,19.1650351 20.1377819,18.8595245 C19.0459008,18.5540138 17.7771932,18.9331556 16.3316593,19.9969498 Z" id="Path-9" fill-opacity="0.4" fill="#000000"></path>
        <path d="M6.65967533,14.8181818 C6.43620616,17.2436018 6.7514517,19.0915521 7.60541194,20.3620329 C8.45937218,21.6325137 9.70474755,22.9044714 11.341538,24.1779061 C11.4641577,22.2398132 11.8939646,21.0487308 12.6309586,20.6046588 C13.3679526,20.1605868 14.5745148,19.9183361 16.2506451,19.8779067 C18.2760721,18.4457101 19.8040592,18.1683486 20.8346063,19.0458223 C21.8651534,19.923296 22.5456058,21.0208543 22.8759634,22.3384972 C24.0264994,20.9977876 24.7239193,19.9002293 24.9682232,19.0458223 C25.212527,18.1914153 25.3130137,16.7392583 25.2696832,14.6893512 C22.1072299,14.2158134 19.1008839,13.9790444 16.2506451,13.9790444 C13.4004064,13.9790444 10.2034164,14.2587569 6.65967533,14.8181818 Z" id="Path-10" fill="#000000"></path>
        <g id="Group-9" transform="translate(2.000000, 2.000000)" fill="#000000" fill-rule="nonzero">
            <path d="M14,0 C21.7319865,0 28,6.2680135 28,14 C28,21.7319865 21.7319865,28 14,28 C6.2680135,28 0,21.7319865 0,14 C0,6.2680135 6.2680135,0 14,0 Z M14,1.45454545 C7.07133678,1.45454545 1.45454545,7.07133678 1.45454545,14 C1.45454545,20.9286632 7.07133678,26.5454545 14,26.5454545 C20.9286632,26.5454545 26.5454545,20.9286632 26.5454545,14 C26.5454545,7.07133678 20.9286632,1.45454545 14,1.45454545 Z" id="Oval"></path>
            <path d="M16.6825634,23.7304521 L16.6450735,23.7406856 C16.6287515,23.7451072 16.6124131,23.7494889 16.5960583,23.7538306 C16.5184094,23.7744438 16.4404548,23.7941391 16.3621449,23.8129213 C16.320719,23.8228544 16.2797224,23.8324126 16.2386306,23.8417201 C16.1839137,23.8541166 16.1285934,23.8661589 16.0731057,23.8777455 C16.032269,23.8862716 15.991568,23.8945067 15.950779,23.9024961 C15.865478,23.9192074 15.7794431,23.9349027 15.693035,23.9494997 C15.6818074,23.9513957 15.6710975,23.9531865 15.6603819,23.9549604 C15.5566006,23.9721471 15.4517488,23.9878216 15.3463829,24.0018701 C15.3339871,24.003523 15.3213509,24.0051838 15.3087073,24.0068212 C15.2179623,24.0185711 15.127025,24.0290965 15.0357275,24.0384048 C14.9997007,24.0420775 14.963732,24.0455503 14.9277085,24.0488338 C14.8769137,24.0534642 14.8258988,24.0577266 14.7747775,24.0616082 C14.7194189,24.0658106 14.6640826,24.0695576 14.6086257,24.0728568 C14.5380498,24.0770567 14.4670935,24.0805383 14.3959483,24.0832834 C14.3707798,24.0842549 14.345447,24.0851386 14.3200906,24.0859287 C14.2136485,24.0892431 14.1070188,24.0909091 14,24.0909091 C13.8906254,24.0909091 13.7816573,24.089169 13.6731217,24.0857149 L14,24.0909091 C13.848613,24.0909091 13.6980045,24.0875754 13.5482441,24.0809775 C13.4601328,24.0770942 13.3724761,24.0720923 13.285126,24.0659786 C13.2610613,24.0642949 13.2367635,24.0625071 13.2124897,24.0606334 C12.9734756,24.0421779 12.737024,24.0154297 12.5031903,23.9806594 C12.4939329,23.9792832 12.4842615,23.9778311 12.4745945,23.9763653 C12.2428264,23.9412111 12.0140905,23.8982728 11.7882131,23.8477619 C11.7633758,23.8422075 11.7386833,23.836587 11.7140254,23.8308762 C11.6275768,23.810857 11.5412799,23.7896557 11.4554273,23.7673525 C11.4205748,23.7582965 11.3862542,23.7491834 11.3520061,23.7398945 C11.1517624,23.6855917 10.9536456,23.625161 10.7582169,23.5589055 C10.7176703,23.5451604 10.6769688,23.5310689 10.6363865,23.5167253 C10.5646387,23.4913636 10.4935721,23.4653306 10.422885,23.4385264 C10.3928237,23.4271272 10.3628541,23.4155975 10.3329537,23.4039293 C10.2383825,23.367026 10.1443549,23.3286735 10.051048,23.2889562 C10.0205208,23.2759616 9.99012546,23.262845 9.95980783,23.2495836 C9.88849242,23.2183894 9.81757988,23.186382 9.74710919,23.1535847 C9.71155487,23.1370371 9.67621815,23.1203389 9.64099468,23.1034423 C9.57397664,23.0712979 9.50693082,23.0382131 9.44031057,23.0044108 C9.4052725,22.9866297 9.37100932,22.9689932 9.33686088,22.951167 C9.24876755,22.9051887 9.16079669,22.857589 9.07362509,22.8087327 C9.06629371,22.8046233 9.05937113,22.8007323 9.05245361,22.7968334 C5.98240779,21.0665009 3.90909091,17.775375 3.90909091,14 C3.90909091,13.368206 3.96715351,12.7499732 4.07823378,12.1503467 C7.18283733,11.6415757 10.5407371,11.3636364 14.0454545,11.3636364 C17.5148781,11.3636364 20.8404262,11.6360059 23.9186921,12.1350233 C24.0318555,12.7394676 24.0909091,13.3628375 24.0909091,14 C24.0909091,16.7363199 23.0017803,19.2182601 21.2333771,21.0359664 C21.2329032,21.0354204 21.2327698,21.0360781 21.2326362,21.0367358 L21.180612,21.0898013 C21.1446486,21.1262225 21.1084101,21.1623714 21.0719,21.1982447 L21.2326362,21.0367358 C21.1475594,21.1241651 21.060911,21.2100572 20.9727366,21.2943666 C20.9443067,21.3215452 20.9157907,21.3484963 20.8871185,21.3752821 C20.8469175,21.4128445 20.8061413,21.4503203 20.7650579,21.4874627 C20.6264343,21.6127852 20.4843686,21.7342709 20.3389726,21.8518002 C20.3098056,21.8753774 20.2804802,21.8988144 20.2510218,21.9220905 C20.2058733,21.9577638 20.1604494,21.9930313 20.1147184,22.027917 C20.0827111,22.0523368 20.0499823,22.0769948 20.0170995,22.1014574 C19.7808983,22.2771666 19.5369782,22.4426488 19.2857608,22.5974283 C19.2559016,22.6158232 19.2259691,22.6340507 19.1959348,22.6521262 C19.1419721,22.6846072 19.087357,22.7167823 19.0324156,22.7484547 C19.004397,22.7646017 18.9770665,22.780184 18.9496566,22.7956418 C18.8960082,22.8259052 18.8412485,22.8561255 18.7861812,22.8858489 C18.7432446,22.9090219 18.7002458,22.9318295 18.6570639,22.9543339 C18.6177462,22.9748235 18.5788024,22.9947945 18.5397129,23.0145187 C18.4973561,23.0358935 18.4542124,23.0572801 18.4108952,23.0783658 C18.3234637,23.1209192 18.2359744,23.1619522 18.1478108,23.2017553 C18.1332847,23.2083119 18.1186835,23.2148621 18.1040639,23.2213785 C17.9360968,23.2962473 17.7657372,23.3666487 17.5931059,23.4324471 C17.5647393,23.4432566 17.5366844,23.4538046 17.5085703,23.464231 C17.4406669,23.4894184 17.371975,23.5140485 17.302943,23.5379502 C17.2828127,23.5449184 17.2630206,23.551701 17.2432008,23.5584238 L17.1895077,23.5764678 C17.0224255,23.632089 16.8534012,23.6834598 16.6825634,23.7304521 Z M17.0454545,17.3636364 C16.3147375,17.3636364 15.6313784,17.6410886 15.1116959,18.1318621 L15.0787481,18.1634771 L14.5013654,18.7263956 L13.7180398,18.5349566 C13.5003487,18.4817544 13.2752762,18.4545455 13.0454545,18.4545455 C11.4890157,18.4545455 10.2272727,19.7162884 10.2272727,21.2727273 C10.2272727,21.4371386 10.2412057,21.5991468 10.2685889,21.757698 L10.2748887,21.7939033 C10.2978857,21.8049146 10.3209389,21.8158271 10.344048,21.8266403 L10.6385858,21.9577804 C10.6581171,21.9660407 10.6776852,21.9742312 10.6972896,21.9823516 C10.7608114,22.0091541 10.8247178,22.0347342 10.8889234,22.0595392 L10.6972896,21.9823516 C10.8082823,22.0283262 10.9204416,22.0720532 11.033711,22.1134759 L10.8889234,22.0595392 C11.0223257,22.1110777 11.1570192,22.1592706 11.2929052,22.2040743 L11.033711,22.1134759 C11.1598524,22.1596059 11.2873703,22.2028781 11.4161865,22.2432141 L11.2929052,22.2040743 C11.4100064,22.2426843 11.5279931,22.2787773 11.6468021,22.3123252 L11.4161865,22.2432141 C11.5176274,22.2749782 11.6198734,22.3049214 11.7228862,22.3330055 L11.6468021,22.3123252 C11.7711915,22.3474489 11.8964822,22.3797828 12.0226017,22.4092947 L11.7228862,22.3330055 C11.8564007,22.3694053 11.9912034,22.4026819 12.1272107,22.4327522 L12.0226017,22.4092947 C12.1433562,22.4375512 12.2648705,22.4632208 12.3870809,22.4862751 L12.1272107,22.4327522 C12.2300931,22.4554987 12.3336648,22.4764106 12.4378898,22.4954516 L12.3870809,22.4862751 C12.5151467,22.510434 12.643977,22.5317211 12.7734984,22.5501039 L12.4378898,22.4954516 C12.5723672,22.5200194 12.7079322,22.5414727 12.8445073,22.5597341 L12.7734984,22.5501039 C12.8767217,22.5647542 12.980384,22.5775598 13.0844481,22.5885043 L12.8445073,22.5597341 C12.9648855,22.5758298 13.0860484,22.5894457 13.2079429,22.6005287 L13.0844481,22.5885043 C13.2309573,22.6039128 13.3782631,22.6156323 13.5262619,22.6236169 L13.2079429,22.6005287 C13.3329771,22.6118973 13.4587812,22.6206008 13.5852978,22.626582 L13.5262619,22.6236169 C13.6323271,22.6293391 13.7387483,22.6331431 13.8454874,22.635012 L13.8456264,22.6350117 L14,22.6363636 L14.2893952,22.6316063 C14.3285621,22.6303167 14.3676631,22.6287663 14.4066964,22.6269568 C14.4665676,22.6241575 14.5261418,22.6207767 14.585592,22.6167917 L14.4066964,22.6269568 C14.5116499,22.6220914 14.6161141,22.6153527 14.7200564,22.6067733 L14.585592,22.6167917 C14.7026964,22.6089421 14.8193195,22.5987483 14.9354061,22.5862412 L14.7200564,22.6067733 C14.8102507,22.5993287 14.900052,22.590498 14.989439,22.5803028 L14.9354061,22.5862412 C15.1477428,22.5633641 15.3582846,22.5327472 15.566694,22.4945788 C15.6119765,22.4863133 15.6568692,22.4777138 15.701637,22.4687682 L15.566694,22.4945788 C15.6631413,22.4769153 15.759132,22.4576346 15.8546325,22.4367553 L15.701637,22.4687682 C15.7926013,22.4505916 15.8830498,22.430986 15.9729582,22.4099758 L15.8546325,22.4367553 C15.9723843,22.4110111 16.0893911,22.3828367 16.20559,22.3522669 L15.9729582,22.4099758 C16.0662289,22.38818 16.1589182,22.3648726 16.250999,22.3400809 L16.20559,22.3522669 C16.3194356,22.3223163 16.4325059,22.2900663 16.5447417,22.25555 L16.250999,22.3400809 C16.3604707,22.3106069 16.4690822,22.2790349 16.5767878,22.2454108 L16.5447417,22.25555 C16.6253383,22.2307638 16.7055046,22.204809 16.7852188,22.1776976 L16.5767878,22.2454108 C16.6910953,22.2097256 16.8043825,22.171729 16.9165946,22.1314757 L16.7852188,22.1776976 C16.8731267,22.1477995 16.9604848,22.1164949 17.0472637,22.0838001 L16.9165946,22.1314757 C17.0414772,22.0866771 17.1650283,22.0390833 17.2871724,21.9887698 C17.3363828,21.969015 17.3852464,21.9483729 17.4339057,21.9272829 L17.2871724,21.9887698 C17.3593762,21.9590277 17.4310884,21.9283352 17.5022933,21.8967078 L17.4339057,21.9272829 C17.5190213,21.8903921 17.6035118,21.852131 17.6873478,21.8125163 L17.5022933,21.8967078 C17.6021768,21.8523422 17.7010622,21.8061371 17.7989065,21.7581355 L17.6873478,21.8125163 C17.778186,21.7695929 17.8682557,21.7250801 17.9575195,21.678999 L17.7989065,21.7581355 C17.8832807,21.7167422 17.9668808,21.6740131 18.0496791,21.6299756 L18.0502789,21.6303945 C18.2621757,21.5169561 18.4693914,21.3953194 18.67086,21.2655314 C18.6939547,21.2513919 18.7166184,21.2366344 18.7392157,21.2217682 L18.67086,21.2655314 C18.867803,21.1386589 19.0592541,21.0039973 19.2447781,20.8619821 C19.2653789,20.8467194 19.2856282,20.831063 19.305813,20.8153129 L19.2447781,20.8619821 C19.3055513,20.8154613 19.3656885,20.7681514 19.4251743,20.7200678 L19.305813,20.8153129 C19.3832767,20.7548684 19.4597902,20.6930454 19.5353189,20.629863 L19.4251743,20.7200678 C19.5012752,20.6585538 19.5763102,20.5957734 19.6502471,20.5317586 L19.5353189,20.629863 C19.6075332,20.5694532 19.6788472,20.5078008 19.749231,20.4449224 L19.6502471,20.5317586 C19.7163249,20.4745483 19.7815258,20.416352 19.8458267,20.3571927 L19.8588182,20.3451818 L19.860822,20.3095091 C19.8617588,20.2883148 19.8624624,20.2670754 19.8629318,20.2457929 L19.8636364,20.1818182 C19.8636364,18.6253793 18.6018934,17.3636364 17.0454545,17.3636364 Z M14.2536466,12.8185164 L14.0454545,12.8181818 C11.0914078,12.8181818 8.20209273,13.0201314 5.4549255,13.4110858 L5.38281818,13.4215455 L5.37983517,13.4658832 C5.37121032,13.6076125 5.36601799,13.7499362 5.36428606,13.8927753 L5.36363636,14 C5.36363636,16.8128612 6.70838613,19.3116393 8.79006907,20.8885177 C8.98431041,18.7085073 10.8153609,17 13.0454545,17 C13.3962335,17 13.7371397,17.0422705 14.0633571,17.1219957 C14.8331811,16.3714567 15.8853222,15.9090909 17.0454545,15.9090909 C18.9551932,15.9090909 20.5723,17.1619969 21.1196319,18.8906659 C22.0758668,17.5010748 22.6363636,15.8159929 22.6363636,14 C22.6363636,13.8195699 22.6308506,13.6399664 22.6198793,13.4613466 L22.6162727,13.4084545 L22.5306625,13.3961962 C19.8795467,13.0240642 17.0974471,12.8276581 14.2536466,12.8185164 Z" id="Combined-Shape"></path>
            <path d="M6.00209124,6.50491603 C6.1482887,6.13911149 6.5581779,5.95747368 6.92575922,6.09125144 L6.94733054,6.09948551 L9.85746865,7.2625515 C10.4643672,7.50510462 10.4658087,8.3586271 9.87057309,8.60787841 L9.84768241,8.61705072 L5.64726242,10.2258005 C5.27217033,10.3694598 4.85163924,10.1818464 4.70797996,9.80675435 C4.56708335,9.43887557 4.74484065,9.02728864 5.10559522,8.87606481 L5.12702613,8.86747189 L7.59172727,7.92354545 L6.40752176,7.45015533 C6.04171722,7.30395786 5.86007941,6.89406866 5.99385717,6.52648735 L6.00209124,6.50491603 Z" id="Path-7"></path>
            <path d="M19.0930003,6.50491603 C19.2391978,6.13911149 19.649087,5.95747368 20.0166683,6.09125144 L20.0382396,6.09948551 L22.9483777,7.2625515 C23.5552763,7.50510462 23.5567178,8.3586271 22.9614822,8.60787841 L22.9385915,8.61705072 L18.7381715,10.2258005 C18.3630794,10.3694598 17.9425483,10.1818464 17.798889,9.80675435 C17.6579924,9.43887557 17.8357497,9.02728864 18.1965043,8.87606481 L18.2179352,8.86747189 L20.6826364,7.92354545 L19.4984308,7.45015533 C19.1326263,7.30395786 18.9509885,6.89406866 19.0847663,6.52648735 L19.0930003,6.50491603 Z" id="Path-7" transform="translate(20.578166, 8.160730) scale(-1, 1) translate(-20.578166, -8.160730) "></path>
        </g>
    </g>
</svg>