<?xml version="1.0" encoding="UTF-8"?>
<svg width="32px" height="32px" viewBox="0 0 32 32" version="1.1" xmlns="http://www.w3.org/2000/svg" xmlns:xlink="http://www.w3.org/1999/xlink">
    <title>icon-twitter</title>
    <g id="icon-twitter" stroke="none" stroke-width="1" fill="none" fill-rule="evenodd">
        <g id="twitter-brands" transform="translate(2.075000, 5.082000)" fill="#000000" fill-rule="nonzero">
            <path d="M25.121895,5.66750651 C25.1396685,5.91622624 25.1396685,6.16500064 25.1396685,6.41372037 C25.1396685,14 19.3655756,22.7411748 8.81221411,22.7411748 C5.56092016,22.7411748 2.54062711,21.799507 0,20.1650553 C0.461947117,20.2183212 0.906066039,20.2360947 1.38578666,20.2360947 C4.06849246,20.2360947 6.53808023,19.3300286 8.51017387,17.7843351 C5.98732026,17.7310146 3.87309325,16.0787347 3.14465291,13.8046008 C3.50001367,13.8578666 3.85531975,13.8934136 4.22845402,13.8934136 C4.74366697,13.8934136 5.25893461,13.8223196 5.73860054,13.6980144 C3.10916058,13.1649733 1.13701225,10.8553471 1.13701225,8.06600026 L1.13701225,7.99496092 C1.90094493,8.42136102 2.78934683,8.68785425 3.7309052,8.72334658 C2.18521166,7.69286599 1.17255927,5.93399974 1.17255927,3.94413259 C1.17255927,2.87815968 1.45677132,1.90099961 1.95426545,1.04819941 C4.77915929,4.53043957 9.02538682,6.80451877 13.7867726,7.05329318 C13.6979598,6.62689307 13.6446392,6.18277415 13.6446392,5.73860054 C13.6446392,2.57611944 16.2030399,0 19.3832398,0 C21.0355197,0 22.5278927,0.692893332 23.5761468,1.81218677 C24.8730659,1.56346704 26.1167192,1.08374642 27.2182938,0.426400103 C26.791839,1.75892093 25.885773,2.87821437 24.6954402,3.58882652 C25.8502807,3.46452135 26.9695741,3.14465291 28,2.70053399 C27.2184032,3.83754624 26.2411884,4.85019863 25.121895,5.66750651 Z" id="Path"></path>
        </g>
    </g>
</svg>