<?xml version="1.0" encoding="UTF-8"?>
<svg width="410px" height="410px" viewBox="0 0 410 410" version="1.1" xmlns="http://www.w3.org/2000/svg" xmlns:xlink="http://www.w3.org/1999/xlink">
    <title>MW logo</title>
    <g id="Page-1" stroke="none" stroke-width="1" fill="none" fill-rule="evenodd">
        <g id="MW-logo">
            <circle id="backing" fill="#FFFFFF" cx="205" cy="205" r="205"></circle>
            <g id="disc" transform="translate(43.000000, 40.000000)" fill="#000000" fill-rule="nonzero">
                <path d="M164.5,0 C255.350841,0 329,73.6491587 329,164.5 C329,255.350841 255.350841,329 164.5,329 C73.6491587,329 0,255.350841 0,164.5 C0,73.6491587 73.6491587,0 164.5,0 Z M164.5,1 C74.2014434,1 1,74.2014434 1,164.5 C1,254.798557 74.2014434,328 164.5,328 C254.798557,328 328,254.798557 328,164.5 C328,74.2014434 254.798557,1 164.5,1 Z" id="Oval"></path>
                <path d="M164.5,7 C251.484848,7 322,77.5151519 322,164.5 C322,251.484848 251.484848,322 164.5,322 C77.5151519,322 7,251.484848 7,164.5 C7,77.5151519 77.5151519,7 164.5,7 Z M164.5,8 C78.0674367,8 8,78.0674367 8,164.5 C8,250.932563 78.0674367,321 164.5,321 C250.932563,321 321,250.932563 321,164.5 C321,78.0674367 250.932563,8 164.5,8 Z" id="Oval"></path>
            </g>
            <g id="wood" transform="translate(131.000000, 47.606006)" fill="#000000" fill-rule="nonzero">
                <polygon id="grain" points="148 16.8108332 148 296.935867 147 296.935867 147 16.8108332"></polygon>
                <polygon id="grain" points="133 10.120368 133 303.625515 132 303.625515 132 10.120368"></polygon>
                <path d="M114.468,4.39717723 L115.468,4.39717723 L115.468611,13.0001479 L115.477823,14.2785875 L115.507562,16.0262556 L115.557617,17.8396983 L115.608733,19.2537981 L115.671673,20.7226557 L115.746606,22.2538824 L115.833703,23.8550894 L116.006354,26.6999524 L116.169668,29.1547056 L116.405962,32.4763248 L117.152245,42.3976711 L117.48817,47.0868816 L117.694557,50.2339468 L117.816145,52.3115307 L117.925032,54.4952641 L117.992437,56.2125309 L118.025147,57.3016843 L118.057382,58.8851135 L118.071232,60.4480646 L118.072115,60.9722526 C118.072115,64.0963156 117.936563,67.0969398 117.664341,70.5277898 L117.535077,72.0774192 L117.168156,75.9887923 L116.76775,80.0711682 L116.563133,82.2515586 C115.846545,90.1178405 115.498847,96.6685658 115.469967,105.129615 L115.468,106.295538 L115.468,309.270977 L114.468,309.270977 L114.468,106.295538 C114.468,97.622921 114.785906,91.010843 115.471335,83.2311292 L115.667419,81.0780141 L116.386174,73.675544 L116.503198,72.395164 L116.637074,70.8268972 L116.667474,70.4486929 C116.937731,67.0426111 117.072115,64.0678383 117.072115,60.9722526 L117.066491,59.6743224 L117.053384,58.6376271 L117.019061,57.0933959 L116.976137,55.772561 L116.877111,53.504231 L116.776088,51.6285883 L116.5772,48.4391136 L116.31603,44.6785523 L115.408483,32.5473332 L115.171595,29.2171852 L115.007858,26.7557039 L114.866597,24.4546908 L114.747411,22.2960042 L114.695972,21.264364 L114.628864,19.7701548 L114.573667,18.3330436 L114.530212,16.9453768 L114.507682,16.0439553 L114.477854,14.2877627 L114.468613,13.0025082 L114.468,4.39717723 Z" id="grain"></path>
                <path d="M99.468,1.32066174 L99.468,19.7175768 L99.4727735,20.5989549 C99.4743739,20.7443402 99.4763813,20.8890229 99.4788027,21.0330828 L99.4983536,21.8906035 C99.5024584,22.0324899 99.506991,22.1739127 99.5119583,22.3149512 L99.5470342,23.1572086 C99.5807034,23.8563088 99.6255866,24.5497829 99.6825489,25.2475779 L99.756757,26.0876425 L99.8428933,26.9356746 L99.9412902,27.7954939 L100.05228,28.67092 C100.071846,28.8183371 100.091951,28.9665637 100.112601,29.1156792 L100.243103,30.0216772 C100.265962,30.1746671 100.289381,30.3287052 100.313367,30.4838709 L100.464128,31.429035 L100.628811,32.4050842 L100.807749,33.4158382 L101.001273,34.4651167 L101.209715,35.5567391 L101.433409,36.6945251 L101.672685,37.8822943 L102.785207,43.2554036 L103.009996,44.3797475 L103.27212,45.7405291 C103.313851,45.9625538 103.354607,46.1822739 103.394395,46.3998122 L103.621543,47.679839 C104.340272,51.8658535 104.67623,55.2771317 104.67623,58.8939944 C104.67623,62.3767149 104.350098,65.4749072 103.667477,69.1295624 L103.457567,70.2157752 L103.206062,71.443796 L102.117933,76.4543108 L102.061055,76.7195085 C100.338687,84.7717549 99.5198856,91.3358681 99.4703926,100.647442 L99.468,101.557281 L99.468,312.376705 L98.468,312.376705 L98.468,101.557281 C98.468,91.9903646 99.240769,85.3146195 100.918031,77.2911548 L101.391909,75.0850589 L102.084678,71.911386 L102.293174,70.9231245 L102.534448,69.729003 C103.308956,65.7821156 103.67623,62.5545454 103.67623,58.8939944 C103.67623,55.1599189 103.310855,51.639597 102.524086,47.2087571 L102.287779,45.9170557 L102.02825,44.5699752 L101.584083,42.3746945 L100.81756,38.6916725 L100.56859,37.4686065 L100.224703,35.7302369 L100.014675,34.6298661 L99.8196447,33.5718409 L99.6392822,32.5523138 L99.4732567,31.5674377 L99.3212377,30.6133654 L99.1828946,29.6862495 L99.0578971,28.782243 L98.9459143,27.8974984 L98.8466159,27.0281687 L98.7596714,26.1704066 L98.68475,25.3203648 C98.6617434,25.0378768 98.6406856,24.7560343 98.6215214,24.4741961 L98.5696549,23.6280533 C98.5542231,23.3455825 98.5406298,23.0624749 98.5288201,22.7780891 L98.4986864,21.9204563 L98.4789231,21.0513077 C98.4764751,20.9052762 98.4744454,20.7586046 98.4728272,20.6112127 L98.468,19.7175768 L98.468,1.32066174 L99.468,1.32066174 Z" id="grain"></path>
                <path d="M82.468,5.68434189e-14 L82.468,23.5318509 C82.468,28.7445314 83.3567379,32.4316469 85.6966965,37.8261155 L86.1525825,38.8583756 L86.6433055,39.9353876 C86.7280415,40.118882 86.8142634,40.3044384 86.9019883,40.4921555 L87.8054023,42.4084516 L88.0647856,42.9637176 L88.5555429,44.0369171 C90.9956802,49.4595872 91.9671606,53.0543303 91.9671606,57.8939944 C91.9671606,62.0010679 91.1879243,65.0934651 89.422577,69.0000389 L88.9510586,70.0118086 L87.1696154,73.7011809 C84.0178721,80.3682482 82.5360202,86.2684465 82.4702913,95.6427018 L82.468,96.3024096 L82.468,313.659124 L81.468,313.659124 L81.468,96.3024096 C81.468,86.6127044 82.9120008,80.5061103 86.0442723,73.7465098 L86.5305638,72.7218935 L88.2221235,69.2161077 L88.2799785,69.0926403 C90.1552232,65.060731 90.9671606,62.0168692 90.9671606,57.8939944 C90.9671606,52.9219412 89.9037593,49.3038319 87.1623552,43.3946927 L85.9932424,40.9095511 L85.4759932,39.7890151 C82.6465576,33.5771341 81.5320743,29.63135 81.4706993,24.0304436 L81.468,23.5318509 L81.468,5.68434189e-14 L82.468,5.68434189e-14 Z" id="grain"></path>
                <path d="M67,5.5166538e-11 L67,15.0166896 C67,20.2085377 66.30451,24.3294318 64.5741616,29.599353 L64.2375111,30.6014703 L63.8761091,31.6337699 L63.4894583,32.6995037 L63.0770616,33.8019236 L62.638422,34.9442815 L62.1730423,36.1298294 L60.6187936,40.0028865 L60.1289633,41.2507648 C57.5268382,47.9750773 56.4333658,52.4694304 56.4333658,57.8939944 C56.4333658,63.1647197 57.3234044,66.6749951 59.7948384,71.8599424 L60.2475303,72.7930164 L60.7338984,73.7650538 C60.817813,73.9305401 60.9031659,74.0978246 60.9899748,74.2669948 L61.9390329,76.0919219 L62.4716378,77.1295855 C62.5575281,77.2988789 62.6419911,77.4664043 62.7250434,77.6322477 L63.2065627,78.6078123 C65.91824,84.1888922 66.9428293,87.9201998 66.9976585,93.4882219 L67,93.970065 L67,313.659124 L66,313.659124 L66,93.970065 C66,88.4601683 65.0822827,84.8465596 62.5166813,79.4795653 L62.0605851,78.5416522 C61.9818332,78.3822436 61.9017021,78.2212335 61.8201747,78.0585367 L61.3141182,77.0614344 L60.3638807,75.2344801 L59.8332814,74.2000332 L59.3375582,73.2086499 C56.4661891,67.3810611 55.4333658,63.6499468 55.4333658,57.8939944 C55.4333658,52.1545795 56.6204794,47.4478825 59.436846,40.2729035 L60.1008489,38.6054648 L60.9998106,36.3731329 L61.4731403,35.1790781 L61.9196754,34.0298019 C61.991893,33.8418085 62.0630151,33.6555468 62.1330521,33.4709496 L62.5403383,32.3828047 L62.922087,31.3313899 C63.1066609,30.8143284 63.2818468,30.3098335 63.4479278,29.8160941 L63.7680334,28.8424197 C65.3086996,24.0403862 65.9577225,20.1931884 65.9979918,15.4899355 L66,15.0166896 L66,5.5166538e-11 L67,5.5166538e-11 Z" id="grain"></path>
                <path d="M50,2.18608399 L50,16.0034522 C50,23.6984587 49.2185766,30.269881 47.5415631,39.1564175 L46.0278964,47.0876329 L45.5774119,49.5345001 L45.2786331,51.2583762 L45.0849037,52.4922128 L44.9989957,53.1066717 L44.913889,53.8031626 L44.8505417,54.4405988 L44.8057459,55.0409251 L44.7866163,55.3887294 L44.7765845,55.6186593 L44.7650135,55.9658611 L44.7533686,56.5618385 L44.7479683,57.4676916 L44.749719,58.3526267 L44.760719,59.0218198 L44.7738702,59.4588291 L44.8031493,60.1064653 L44.8448817,60.75161 L44.9001817,61.402095 L44.9451363,61.8425862 L44.9969464,62.2912522 L45.0559422,62.7504137 L45.1586313,63.4639112 L45.2793456,64.2140767 L45.4191994,65.008742 L45.5236186,65.5671087 L45.6978478,66.4533448 L45.9647412,67.7380564 L46.3576598,69.5356904 L46.9229482,72.0219377 L47.5191306,74.589973 L47.8195939,75.9073555 L48.0987276,77.1664469 C48.1434948,77.3717104 48.18739,77.5747496 48.2304217,77.7756666 L48.478316,78.9565203 L48.7058875,80.091348 C48.7421449,80.276923 48.7775722,80.4607847 48.812178,80.6430353 L49.0100201,81.7180229 L49.1885459,82.7592496 C49.2448799,83.1012435 49.2980617,83.4384282 49.3481583,83.7716215 L49.4892597,84.7600445 L49.612253,85.7294247 C49.8594119,87.8126621 49.9818943,89.7963531 49.9981308,91.9050506 L50,311.671654 L49,311.671654 L49,92.3939944 C49,90.6225373 48.9259313,88.9495499 48.7665112,87.2402975 L48.6710224,86.3035716 L48.5581975,85.3547937 C48.4365689,84.39837 48.2883258,83.4165799 48.1116372,82.3875579 L47.9253991,81.3419822 C47.8927565,81.1648256 47.8593067,80.9861546 47.8250414,80.8058679 L47.6095949,79.7039498 L47.3741674,78.5583964 L47.1183522,77.3643487 L46.8417423,76.1169478 L46.5439309,74.8113347 L45.742879,71.3512292 L45.2895217,69.3393613 L44.9776677,67.9050317 L44.7716862,66.9190996 L44.5883814,66.0013202 L44.4266329,65.143745 L44.2853202,64.3384255 L44.2019115,63.8266516 L44.1267553,63.3322147 L44.0287682,62.6179143 L43.9727906,62.1565161 L43.9239036,61.7042121 L43.8817749,61.258647 L43.8305277,60.5977831 L43.8038426,60.1587619 L43.7827538,59.7182367 L43.7608875,59.0494772 L43.7497455,58.3640864 L43.7479683,57.457859 L43.7519382,56.6577913 C43.7544785,56.4040969 43.7585321,56.1613638 43.7649876,55.9234915 L43.7866447,55.3354072 L43.8218056,54.7406201 L43.8738809,54.1190169 L43.9459295,53.4521479 L44.0633107,52.5608632 L44.2499618,51.3469666 L44.5397015,49.6554483 L45.0946541,46.6387626 L46.5584474,38.9734123 L46.8905972,37.1781079 C48.2751002,29.5319136 48.9491973,23.5574361 48.9972312,16.7881869 L49,16.0034522 L49,2.18608399 L50,2.18608399 Z" id="grain"></path>
                <polygon id="grain" points="33 5.82940549 34 5.82940549 33.9992766 7.73415248 33.9930056 8.55340072 33.9560607 10.295464 33.9090056 11.6061069 33.8083506 13.7297155 33.5902939 17.4906745 32.9991004 26.5206887 32.3765899 35.759422 32.1247693 39.686719 31.9098809 43.2640058 31.7587884 45.9972655 31.632936 48.5219739 31.5149693 51.2984232 31.4439933 53.4195363 31.4049677 55.0016595 31.3859935 56.1265751 31.3757992 57.2023897 31.373861 57.8939944 31.3768235 58.8043773 31.3858526 59.7219147 31.4149583 61.2821051 31.4624867 62.9032486 31.52942 64.6110201 31.6167401 66.431094 31.7019348 67.9852645 31.885446 70.9570868 32.1518011 74.8242709 33.2250503 89.1454234 33.4773111 92.7598343 33.6742612 95.8800226 33.7884071 97.9582524 33.8630947 99.5539193 33.9203882 101.052798 33.9613958 102.480223 33.9872259 103.861528 33.9994317 105.35793 34 307.946925 33 307.946925 32.9997487 105.495604 32.9872549 103.872835 32.9614833 102.49868 32.9300158 101.366907 32.8761898 99.8904585 32.8052298 98.321893 32.7160297 96.636005 32.5584007 94.0306691 32.2951346 90.1591648 31.9990737 86.1153351 31.352963 77.6091089 31.1168479 74.3707283 30.8866837 71.0092619 30.7507351 68.8457574 30.617339 66.4699652 30.529807 64.6435312 30.4627093 62.9290139 30.43185 61.9432862 30.3954018 60.3541491 30.382177 59.4238269 30.3768312 58.8098206 30.373861 57.8939944 30.3816388 56.4831539 30.3977167 55.3698655 30.4328891 53.8054295 30.4838456 52.142069 30.5698818 49.9113957 30.6809132 47.4976298 30.7878589 45.4241418 30.9787003 42.0574355 31.1658256 38.9993148 31.5809259 32.6624813 32.3680198 20.9419038 32.74115 14.9272227 32.847184 12.9401962 32.9340465 10.9361395 32.9871183 8.95681814 32.999275 7.73076405"></polygon>
                <polygon id="grain" points="16 11.8293389 16 301.65107 15 301.65107 15 12.2101325"></polygon>
                <polygon id="grain" points="1 18.9280933 1 294.321815 0 294.321815 0 19.6270101"></polygon>
                <path d="M74,45.0428381 C79.2467051,45.0428381 83.5,53.6472893 83.5,58.8939944 C83.5,64.1406995 79.2467051,70.0682254 74,70.0682254 C68.7532949,70.0682254 64.5,64.1406995 64.5,58.8939944 C64.5,53.6472893 68.7532949,45.0428381 74,45.0428381 Z M74,46.0428381 C69.9439409,46.0428381 65.5,53.2986552 65.5,58.8939944 C65.5,63.9498465 69.6162188,69.0682254 74,69.0682254 C78.3837812,69.0682254 82.5,63.9498465 82.5,58.8939944 C82.5,53.2986552 78.0560591,46.0428381 74,46.0428381 Z" id="knot"></path>
            </g>
            <g id="mw" transform="translate(20.604092, 128.000000)" fill-rule="nonzero">
                <polygon id="Combined-Shape" fill="#FFFFFF" points="87.2773143 2.27373675e-13 106.895956 6.82121026e-13 106.89509 106.901715 168.277315 6.82121026e-13 187.89595 6.82121026e-13 187.894865 152 165.894858 152 165.89572 48.3283938 106.368509 152 84.8948577 152 84.8957204 48.3283938 25.3685092 152 1.13686838e-13 152"></polygon>
                <polygon id="Combined-Shape" fill="#FFFFFF" transform="translate(275.947975, 76.000000) scale(-1, -1) translate(-275.947975, -76.000000) " points="269.277314 6.53699317e-13 288.895956 1.10844667e-12 288.89509 106.901715 350.277315 1.10844667e-12 369.89595 1.10844667e-12 369.894865 152 347.894858 152 347.89572 48.3283938 288.368509 152 266.894858 152 266.89572 48.3283938 207.368509 152 182 152"></polygon>
                <path d="M90.8949076,146 L90.8959076,25.829 L21.8949076,146 L10.3639076,146 L90.7509076,6 L100.895908,6 L100.894908,129.401 L171.750908,6 L181.895908,6 L181.894908,146 L171.894908,146 L171.895908,25.829 L102.894908,146 L90.8949076,146 Z" id="Combined-Shape" fill="#000000"></path>
                <path d="M267.894908,146 L267.895908,25.829 L198.894908,146 L187.363908,146 L267.750908,6 L277.895908,6 L277.894908,129.401 L348.750908,6 L358.895908,6 L358.894908,146 L348.894908,146 L348.895908,25.829 L279.894908,146 L267.894908,146 Z" id="Combined-Shape" fill="#000000" transform="translate(273.129908, 76.000000) scale(-1, -1) translate(-273.129908, -76.000000) "></path>
            </g>
            <g id="makeitwood" transform="translate(32.320755, 288.000000)">
                <rect id="Rectangle" fill="#FFFFFF" x="26.6792453" y="1" width="297" height="49"></rect>
                <path d="M61.1512453,37 L61.1512453,19.288 L60.9352453,14.968 L60.9712453,14.968 L69.6472453,37 L71.3032453,37 L79.9792453,14.968 L80.0152453,14.968 L79.7992453,19.288 L79.7992453,37 L81.5272453,37 L81.5272453,13.24 L78.8272453,13.24 L71.6632453,31.276 L70.5112453,34.876 L70.4752453,34.876 L69.2872453,31.24 L62.1232453,13.24 L59.4232453,13.24 L59.4232453,37 L61.1512453,37 Z M87.8677453,37 L90.8312453,29.548 L102.208245,29.548 L105.183745,37 L107.091745,37 L97.5877453,13.24 L95.4637453,13.24 L85.9597453,37 L87.8677453,37 Z M101.547245,27.893 L91.4902453,27.893 L95.6437453,17.452 L96.5077453,15.004 L96.5437453,15.004 L97.4077453,17.524 L101.547245,27.893 Z M113.330995,37 L113.330245,28.992 L118.077245,24.161 L126.794995,37 L128.990995,37 L119.363245,22.853 L128.738995,13.24 L126.362995,13.24 L113.330245,26.542 L113.330995,13.24 L111.530995,13.24 L111.530995,37 L113.330995,37 Z M150.28837,37 L150.28837,35.344 L135.27637,35.344 L135.27637,25.768 L146.68837,25.768 L146.68837,24.076 L135.27637,24.076 L135.27637,14.896 L149.71237,14.896 L149.71237,13.24 L133.47637,13.24 L133.47637,37 L150.28837,37 Z M157.316245,37 L157.316245,13.24 L155.516245,13.24 L155.516245,37 L157.316245,37 Z M172.312495,37 L172.312495,14.896 L180.988495,14.896 L180.988495,13.24 L161.836495,13.24 L161.836495,14.896 L170.512495,14.896 L170.512495,37 L172.312495,37 Z M192.503995,37 L197.291995,20.332 L198.623995,15.184 L198.659995,15.184 L199.991995,20.332 L204.779995,37 L207.011995,37 L214.427995,13.24 L212.627995,13.24 L205.931995,35.38 L199.703995,13.24 L197.615995,13.24 L191.423995,35.344 L184.727995,13.24 L182.855995,13.24 L190.271995,37 L192.503995,37 Z M228.670495,37.36 C230.926495,37.36 232.870495,36.862 234.502495,35.866 C236.134495,34.87 237.394495,33.46 238.282495,31.636 C239.170495,29.812 239.614495,27.64 239.614495,25.12 C239.614495,22.6 239.170495,20.428 238.282495,18.604 C237.394495,16.78 236.134495,15.37 234.502495,14.374 C232.870495,13.378 230.926495,12.88 228.670495,12.88 C226.438495,12.88 224.500495,13.378 222.856495,14.374 C221.212495,15.37 219.946495,16.78 219.058495,18.604 C218.170495,20.428 217.726495,22.6 217.726495,25.12 C217.726495,27.64 218.170495,29.812 219.058495,31.636 C219.946495,33.46 221.212495,34.87 222.856495,35.866 C224.500495,36.862 226.438495,37.36 228.670495,37.36 Z M228.670495,35.704 C226.822495,35.704 225.220495,35.278 223.864495,34.426 C222.508495,33.574 221.464495,32.356 220.732495,30.772 C220.000495,29.188 219.634495,27.304 219.634495,25.12 C219.634495,22.936 220.000495,21.052 220.732495,19.468 C221.464495,17.884 222.508495,16.666 223.864495,15.814 C225.220495,14.962 226.822495,14.536 228.670495,14.536 C230.542495,14.536 232.150495,14.962 233.494495,15.814 C234.838495,16.666 235.882495,17.884 236.626495,19.468 C237.370495,21.052 237.742495,22.936 237.742495,25.12 C237.742495,27.304 237.370495,29.188 236.626495,30.772 C235.882495,32.356 234.838495,33.574 233.494495,34.426 C232.150495,35.278 230.542495,35.704 228.670495,35.704 Z M255.024745,37.36 C257.280745,37.36 259.224745,36.862 260.856745,35.866 C262.488745,34.87 263.748745,33.46 264.636745,31.636 C265.524745,29.812 265.968745,27.64 265.968745,25.12 C265.968745,22.6 265.524745,20.428 264.636745,18.604 C263.748745,16.78 262.488745,15.37 260.856745,14.374 C259.224745,13.378 257.280745,12.88 255.024745,12.88 C252.792745,12.88 250.854745,13.378 249.210745,14.374 C247.566745,15.37 246.300745,16.78 245.412745,18.604 C244.524745,20.428 244.080745,22.6 244.080745,25.12 C244.080745,27.64 244.524745,29.812 245.412745,31.636 C246.300745,33.46 247.566745,34.87 249.210745,35.866 C250.854745,36.862 252.792745,37.36 255.024745,37.36 Z M255.024745,35.704 C253.176745,35.704 251.574745,35.278 250.218745,34.426 C248.862745,33.574 247.818745,32.356 247.086745,30.772 C246.354745,29.188 245.988745,27.304 245.988745,25.12 C245.988745,22.936 246.354745,21.052 247.086745,19.468 C247.818745,17.884 248.862745,16.666 250.218745,15.814 C251.574745,14.962 253.176745,14.536 255.024745,14.536 C256.896745,14.536 258.504745,14.962 259.848745,15.814 C261.192745,16.666 262.236745,17.884 262.980745,19.468 C263.724745,21.052 264.096745,22.936 264.096745,25.12 C264.096745,27.304 263.724745,29.188 262.980745,30.772 C262.236745,32.356 261.192745,33.574 259.848745,34.426 C258.504745,35.278 256.896745,35.704 255.024745,35.704 Z M279.434995,37 C283.226995,37 286.148995,35.968 288.200995,33.904 C290.252995,31.84 291.278995,28.852 291.278995,24.94 C291.278995,21.148 290.252995,18.25 288.200995,16.246 C286.148995,14.242 283.226995,13.24 279.434995,13.24 L279.434995,13.24 L271.946995,13.24 L271.946995,37 L279.434995,37 Z M279.578995,35.344 L273.746995,35.344 L273.746995,14.896 L279.578995,14.896 C282.746995,14.896 285.176995,15.766 286.868995,17.506 C288.560995,19.246 289.406995,21.724 289.406995,24.94 C289.406995,28.276 288.560995,30.844 286.868995,32.644 C285.176995,34.444 282.746995,35.344 279.578995,35.344 L279.578995,35.344 Z" id="MAKEITWOOD" fill="#050312" fill-rule="nonzero"></path>
                <polygon id="Line-11" fill="#000000" fill-rule="nonzero" points="347.358491 0 347.358491 1 0 1 0 0"></polygon>
                <polygon id="Line-11" fill="#000000" fill-rule="nonzero" points="324.357817 49 324.357817 50 26.0006739 50 26.0006739 49"></polygon>
            </g>
        </g>
    </g>
</svg>