<?xml version="1.0" encoding="UTF-8"?>
<svg width="24px" height="25px" viewBox="0 0 24 25" version="1.1" xmlns="http://www.w3.org/2000/svg" xmlns:xlink="http://www.w3.org/1999/xlink">
    <title>Combined Shape</title>
    <g id="Page-1" stroke="none" stroke-width="1" fill="none" fill-rule="evenodd">
        <path d="M14.3235484,0.340870675 C19.8389701,1.42298982 24,6.28360775 24,12.1160863 C24,18.3383903 19.2641604,23.4545797 13.2003325,24.056803 C13.2609012,23.999914 13.3161306,23.9398742 13.3674899,23.8776902 C13.9763412,23.1405161 14.312873,22.0170476 14.3229598,20.482458 L14.3229598,20.482458 L14.3232,20.4098856 L14.3232,4.34776629 L9.65468815,4.34776629 L9.65468815,20.3442771 C9.65468815,20.6597021 9.64787271,20.9094679 9.52434873,21.0267986 C9.41245664,21.1330807 9.23898776,21.1605604 9.02864076,21.1605604 C8.96631602,21.1605604 8.89620277,21.1585538 8.81829807,21.1546733 C8.69014914,21.1482903 8.42470797,21.1269564 7.872,21.0792476 L7.872,21.0792476 L7.87127446,23.386932 C3.2778689,21.7037923 0,17.2927329 0,12.1160863 C0,6.28606886 4.15751903,1.42709202 9.66947035,0.342242547 L9.66912,3.51064629 L14.3232,3.51064629 Z" id="Combined-Shape" fill="#000000"></path>
    </g>
</svg>