<?xml version="1.0" encoding="UTF-8"?>
<svg width="36px" height="36px" viewBox="0 0 36 36" version="1.1" xmlns="http://www.w3.org/2000/svg" xmlns:xlink="http://www.w3.org/1999/xlink">
    <title>Combined Shape</title>
    <g id="Page-1" stroke="none" stroke-width="1" fill="none" fill-rule="evenodd">
        <path d="M21.4846233,0.340767101 C29.7581034,1.96367213 36,9.25476339 36,18.0037277 C36,27.3358011 28.898345,35.0091941 19.8045408,35.9144009 C19.8923156,35.8284212 19.9746441,35.7388669 20.0512349,35.6461336 C20.9645118,34.5403725 21.4693095,32.8551696 21.4844397,30.5532853 L21.4844397,30.5532853 L21.4848,6.35124773 L14.4820322,6.35124773 L14.4820322,30.346014 C14.4820322,30.8191514 14.4718091,31.1938001 14.2865231,31.3697962 C14.118685,31.5292193 13.8584816,31.5704389 13.5429611,31.5704389 C13.449474,31.5704389 13.3443042,31.5674289 13.2274471,31.5616083 C13.0352237,31.5520337 12.6370619,31.5200328 11.808,31.4484696 L11.808,31.4484696 L11.8071206,34.9100729 C4.91690275,32.3854204 0,25.7687762 0,18.0037277 C0,9.25898468 6.23587479,1.97070822 14.5034026,0.343120163 L14.50368,5.09556773 L21.4848,5.09556773 Z" id="Combined-Shape" fill="#000000"></path>
    </g>
</svg>