<?xml version="1.0" encoding="UTF-8"?>
<svg width="48px" height="48px" viewBox="0 0 48 48" version="1.1" xmlns="http://www.w3.org/2000/svg" xmlns:xlink="http://www.w3.org/1999/xlink">
    <title>Combined Shape</title>
    <g id="Page-1" stroke="none" stroke-width="1" fill="none" fill-rule="evenodd">
        <path d="M28.6460994,0.340742254 C39.6774385,2.50459021 48,12.2260605 48,23.8913692 C48,36.334473 38.5306102,46.5658824 26.4050624,47.7723654 C26.5229317,47.6577966 26.6327863,47.5383091 26.7349799,47.414577 C27.9526824,45.9402288 28.625746,43.6932917 28.6459196,40.6241126 L28.6459196,40.6241126 L28.6464,40.4789679 L28.6464,8.35472917 L19.3093763,8.35472917 L19.3093763,40.3477509 C19.3093763,40.9786007 19.2957454,41.4781324 19.0486975,41.7127938 C18.8249133,41.9253579 18.4779755,41.9803174 18.0572815,41.9803174 C17.932632,41.9803174 17.7924055,41.9763041 17.6365961,41.9685433 C17.3802983,41.9557771 16.8494159,41.9131093 15.744,41.8176917 L15.744,41.8176917 L15.7437587,46.4335039 C6.55631335,43.0675556 0,34.2451169 0,23.8913692 C0,12.2313568 8.31500598,2.51341813 19.3388769,0.343694232 L19.33824,6.68048917 L28.6464,6.68048917 Z" id="Combined-Shape" fill="#000000"></path>
    </g>
</svg>