<?xml version="1.0" encoding="UTF-8"?>
<svg width="250px" height="248px" viewBox="0 0 250 248" version="1.1" xmlns="http://www.w3.org/2000/svg" xmlns:xlink="http://www.w3.org/1999/xlink">
    <title>Combined Shape</title>
    <g id="Page-1" stroke="none" stroke-width="1" fill="none" fill-rule="evenodd">
        <path d="M149.200058,0.340803423 C206.654142,11.6114804 250,62.2437565 250,123 C250,187.805408 200.683952,241.092435 137.533455,247.379483 C138.143095,246.780402 138.713743,246.159554 139.244687,245.516707 C145.586887,237.837811 149.092427,226.135013 149.197498,210.149705 L149.197498,210.149705 L149.2,209.393743 L149.2,42.08 L100.569668,42.08 L100.569344,209.059709 C100.563047,212.180076 100.45272,214.641375 99.2119659,215.81992 C98.0464233,216.927025 96.2394559,217.213272 94.0483412,217.213272 C93.3991252,217.213272 92.6687789,217.192369 91.8572716,217.151948 C90.5223868,217.085458 87.7573746,216.86323 82,216.366263 L82,216.366263 L81.9984954,240.406861 C34.1473474,222.875812 0,176.925676 0,123 C0,62.2720195 43.3055392,11.6585896 100.71977,0.356557895 L100.72,33.36 L149.2,33.36 Z" id="Combined-Shape" fill="#000000"></path>
    </g>
</svg>