<?xml version="1.0" encoding="UTF-8"?>
<svg width="117px" height="72px" viewBox="0 0 117 72" version="1.1" xmlns="http://www.w3.org/2000/svg" xmlns:xlink="http://www.w3.org/1999/xlink">
    <title>Jayx</title>
    <g id="Page-1" stroke="none" stroke-width="1" fill="none" fill-rule="evenodd">
        <path d="M25.44,36.216 C29.4,29.664 36.384,15.336 38.76,9.72 C40.56,5.472 40.2,2.304 39.264,0.72 C38.76,-0.144 38.112,-0.216 37.536,0.648 C35.9616,3.0588 32.57172,9.57124 29.3420953,16.0041127 L28.8708407,16.9444553 C27.54016,19.6044 26.2536,22.2156 25.152,24.48 C24.9856552,24.8251034 24.8187967,25.1713199 24.651392,25.5181001 L24.1475072,26.5595834 C19.5972128,35.9382735 14.6251034,45.3277241 8.592,43.92 C6.36,43.416 3.552,40.176 7.08,29.952 C7.512,28.728 7.008,28.296 6,28.512 C4.128,28.944 2.04,30.96 1.248,34.056 C-0.408,40.248 2.688,45.216 8.088,46.152 C13.92,47.16 19.896,45.432 25.44,36.216 Z M62.808,38.592 C63.744,36.576 63.744,34.776 63.456,34.128 C63.168,33.48 62.664,33.552 62.304,34.2 C59.784,39.168 55.824,44.064 52.872,44.208 C50.424,44.352 50.496,41.256 52.296,37.224 C54.024,33.408 57.624,28.008 59.208,24.768 C60.936,21.168 60.36,18.072 59.28,16.776 C58.776,16.128 58.2,16.272 57.552,17.208 C56.76,18.36 55.896,19.872 54.96,21.6 C55.104,18.792 53.664,16.416 50.568,16.416 C46.968,16.416 41.28,19.656 35.448,28.152 C29.472,36.864 30.84,46.008 37.536,46.008 C40.992,46.008 44.232,43.344 46.536,40.392 C46.536,43.776 48.552,46.08 52.44,46.296 C56.4,46.512 60.936,42.552 62.808,38.592 Z M38.328,43.632 C35.52,43.56 36.456,37.224 40.272,31.032 C44.232,24.624 49.488,19.944 51.792,20.16 C53.88,20.376 53.232,24.84 48.696,32.76 C45.024,39.096 41.28,43.704 38.328,43.632 Z M59.784,71.208 C65.76,68.904 70.872,57.312 74.904,47.664 C80.88,45.216 85.92,42.48 88.728,38.016 C89.952,36.144 90.168,34.488 90.024,33.84 C89.88,33.12 89.232,33.192 88.872,33.696 C85.992,37.656 81.744,41.76 76.128,44.784 C79.152,37.8 83.544,29.16 85.704,24.984 C87.576,21.312 87,18.216 85.992,16.92 C85.344,16.344 84.84,16.488 84.192,17.424 C81.672,21.096 78.576,27.576 75.48,32.904 C71.808,39.168 68.208,43.776 65.4,43.56 C63.744,43.416 63.6,40.896 65.04,37.368 C66.408,33.984 67.992,31.032 70.584,26.856 C73.248,22.608 73.68,19.584 71.952,17.28 C71.448,16.56 70.728,16.488 70.152,17.28 C65.472,23.76 61.944,30.888 60.36,35.496 C58.704,40.248 58.848,45.504 64.032,45.936 C66.912,46.152 69.648,44.28 71.88,41.976 C71.088,43.704 70.368,45.504 69.648,47.16 C62.52,49.968 56.4,54.288 54.24,60.768 C52.8,65.016 54.24,67.536 55.68,69.696 C57.048,71.712 58.416,71.712 59.784,71.208 Z M57.12,67.248 C55.824,65.448 59.064,55.584 68.424,50.184 C63.96,60.768 58.056,68.616 57.12,67.248 Z M88.944,45.72 C91.824,42.12 95.352,38.808 98.88,35.856 C99.024,36.72 99.096,37.512 99.168,37.944 C100.032,43.92 102.048,46.152 105.864,46.152 C109.464,46.152 113.208,42.84 115.368,38.592 C116.376,36.648 116.376,34.92 116.016,34.056 C115.8,33.48 115.224,33.552 114.936,34.2 C112.848,38.592 109.752,43.848 107.088,43.704 C106.224,43.632 105.36,42.624 104.784,39.744 C104.424,37.872 104.064,34.92 103.56,31.896 C106.944,29.16 109.824,26.856 111.408,25.056 C113.856,22.248 115.296,20.16 115.296,17.784 C115.296,16.632 114.576,16.704 113.856,17.64 C110.832,21.528 106.944,25.056 103.056,28.224 C102.768,25.92 102.408,23.76 102.048,22.032 C101.4,18.864 100.464,17.424 98.232,16.992 C94.632,16.344 90.456,20.016 89.088,23.472 C88.584,24.768 88.296,26.352 88.656,27.36 C88.872,27.936 89.52,27.864 89.808,27.216 C91.968,22.392 94.848,19.728 95.712,19.8 C96.2487273,19.8536727 97.025518,23.6283293 97.7142855,27.78345 L97.8144143,28.3938447 C97.8475557,28.5979564 97.8804496,28.8025857 97.9130579,29.0073449 L98.0577386,29.9283286 C98.1685686,30.6432952 98.2752,31.3527273 98.376,32.04 C95.712,34.2 93.336,36.144 91.608,38.016 C88.944,40.896 87.504,43.056 87.288,45.504 C87.144,46.728 88.368,46.368 88.944,45.72 Z" id="Jayx" fill="#050312" fill-rule="nonzero"></path>
    </g>
</svg>