<?xml version="1.0" encoding="UTF-8"?>
<svg width="96px" height="96px" viewBox="0 0 96 96" version="1.1" xmlns="http://www.w3.org/2000/svg" xmlns:xlink="http://www.w3.org/1999/xlink">
    <!-- Generator: Sketch 48.2 (47327) - http://www.bohemiancoding.com/sketch -->
    <title>social colour</title>
    <desc>Created with Sketch.</desc>
    <defs></defs>
    <g id="Icons" stroke="none" stroke-width="1" fill="none" fill-rule="evenodd">
        <g id="social-colour" fill="#00B4CC">
            <path d="M19.0785491,73.7233701 L32.0045186,66.2605581 C30.7243958,63.7865833 30.0013358,60.9777315 30.0013358,58 C30.0013358,48.7348927 37.0014349,41.1047461 46.0013358,40.1098576 L46.0013358,25.7291276 C42.5873695,24.8163217 40.0731326,21.7017766 40.0731326,18 C40.0731326,13.581722 43.6548546,10 48.0731326,10 C52.4914106,10 56.0731326,13.581722 56.0731326,18 C56.0731326,21.7534875 53.4881612,24.9032225 50.0013358,25.7660878 L50.0013358,40.1098576 C59.0012367,41.1047461 66.0013358,48.7348927 66.0013358,58 C66.0013358,60.9444637 65.2943418,63.7238002 64.0408495,66.1775138 L76.9862444,73.651541 C79.4506598,70.8361454 83.6379669,70.058158 87.0013358,72 C90.8276768,74.209139 92.138678,79.1018622 89.929539,82.9282032 C87.7204,86.7545442 82.8276768,88.0655455 79.0013358,85.8564065 C75.9111975,84.0723143 74.4615929,80.5379575 75.181774,77.2285317 L61.8318701,69.5209611 C58.5300387,73.4803902 53.5599304,76 48.0013358,76 C42.4767769,76 37.5335197,73.5111513 34.231641,69.5935305 L20.8411666,77.3245246 C21.512912,80.6060953 20.0616157,84.089553 17.0013358,85.8564065 C13.1749948,88.0655455 8.28227157,86.7545442 6.07313257,82.9282032 C3.86399357,79.1018622 5.17499481,74.209139 9.0013358,72 C12.3931342,70.0417443 16.6228585,70.8494918 19.0785491,73.7233701 Z" id="Combined-Shape"></path>
        </g>
    </g>
</svg>